<mxfile host="app.diagrams.net" modified="2023-05-01T12:35:39.671Z" agent="Mozilla/5.0 (Macintosh; Intel Mac OS X 10_15_7) AppleWebKit/605.1.15 (KHTML, like Gecko) Version/16.4 Safari/605.1.15" etag="58r7Fzo1gU8kNXMf6JOX" version="21.2.3" type="github">
  <diagram name="Sayfa -1" id="J2w-fhhRpqJ5C0DNdcqT">
    <mxGraphModel dx="954" dy="675" grid="1" gridSize="10" guides="1" tooltips="1" connect="1" arrows="1" fold="1" page="1" pageScale="1" pageWidth="827" pageHeight="1169" math="0" shadow="0">
      <root>
        <mxCell id="0" />
        <mxCell id="1" parent="0" />
        <mxCell id="NV4ruUfhsoZoxCKaLCGV-9" style="edgeStyle=orthogonalEdgeStyle;rounded=0;orthogonalLoop=1;jettySize=auto;html=1;" edge="1" parent="1" source="NV4ruUfhsoZoxCKaLCGV-1" target="NV4ruUfhsoZoxCKaLCGV-8">
          <mxGeometry relative="1" as="geometry">
            <Array as="points">
              <mxPoint x="450" y="50" />
            </Array>
          </mxGeometry>
        </mxCell>
        <mxCell id="NV4ruUfhsoZoxCKaLCGV-12" style="edgeStyle=orthogonalEdgeStyle;rounded=0;orthogonalLoop=1;jettySize=auto;html=1;" edge="1" parent="1" source="NV4ruUfhsoZoxCKaLCGV-1" target="NV4ruUfhsoZoxCKaLCGV-11">
          <mxGeometry relative="1" as="geometry">
            <Array as="points">
              <mxPoint x="510" y="150" />
            </Array>
          </mxGeometry>
        </mxCell>
        <mxCell id="NV4ruUfhsoZoxCKaLCGV-18" style="edgeStyle=orthogonalEdgeStyle;rounded=0;orthogonalLoop=1;jettySize=auto;html=1;" edge="1" parent="1" source="NV4ruUfhsoZoxCKaLCGV-1" target="NV4ruUfhsoZoxCKaLCGV-17">
          <mxGeometry relative="1" as="geometry">
            <Array as="points">
              <mxPoint x="390" y="110" />
              <mxPoint x="390" y="110" />
            </Array>
          </mxGeometry>
        </mxCell>
        <mxCell id="NV4ruUfhsoZoxCKaLCGV-24" style="edgeStyle=orthogonalEdgeStyle;rounded=0;orthogonalLoop=1;jettySize=auto;html=1;" edge="1" parent="1" source="NV4ruUfhsoZoxCKaLCGV-1" target="NV4ruUfhsoZoxCKaLCGV-23">
          <mxGeometry relative="1" as="geometry" />
        </mxCell>
        <mxCell id="NV4ruUfhsoZoxCKaLCGV-27" style="edgeStyle=orthogonalEdgeStyle;rounded=0;orthogonalLoop=1;jettySize=auto;html=1;" edge="1" parent="1" source="NV4ruUfhsoZoxCKaLCGV-1" target="NV4ruUfhsoZoxCKaLCGV-26">
          <mxGeometry relative="1" as="geometry">
            <Array as="points">
              <mxPoint x="370" y="260" />
            </Array>
          </mxGeometry>
        </mxCell>
        <mxCell id="NV4ruUfhsoZoxCKaLCGV-32" style="edgeStyle=orthogonalEdgeStyle;rounded=0;orthogonalLoop=1;jettySize=auto;html=1;" edge="1" parent="1" source="NV4ruUfhsoZoxCKaLCGV-1" target="NV4ruUfhsoZoxCKaLCGV-29">
          <mxGeometry relative="1" as="geometry" />
        </mxCell>
        <mxCell id="NV4ruUfhsoZoxCKaLCGV-1" value="Kullanıcı" style="rounded=1;whiteSpace=wrap;html=1;" vertex="1" parent="1">
          <mxGeometry x="350" y="120" width="120" height="60" as="geometry" />
        </mxCell>
        <mxCell id="NV4ruUfhsoZoxCKaLCGV-15" style="edgeStyle=orthogonalEdgeStyle;rounded=0;orthogonalLoop=1;jettySize=auto;html=1;" edge="1" parent="1" source="NV4ruUfhsoZoxCKaLCGV-2" target="NV4ruUfhsoZoxCKaLCGV-14">
          <mxGeometry relative="1" as="geometry" />
        </mxCell>
        <mxCell id="NV4ruUfhsoZoxCKaLCGV-2" value="Post" style="rounded=1;whiteSpace=wrap;html=1;" vertex="1" parent="1">
          <mxGeometry x="650" y="120" width="120" height="60" as="geometry" />
        </mxCell>
        <mxCell id="NV4ruUfhsoZoxCKaLCGV-3" value="Haber/Köşe Yazısı" style="rounded=1;whiteSpace=wrap;html=1;" vertex="1" parent="1">
          <mxGeometry x="10" y="230" width="120" height="60" as="geometry" />
        </mxCell>
        <mxCell id="NV4ruUfhsoZoxCKaLCGV-21" style="edgeStyle=orthogonalEdgeStyle;rounded=0;orthogonalLoop=1;jettySize=auto;html=1;" edge="1" parent="1" source="NV4ruUfhsoZoxCKaLCGV-4" target="NV4ruUfhsoZoxCKaLCGV-20">
          <mxGeometry relative="1" as="geometry" />
        </mxCell>
        <mxCell id="NV4ruUfhsoZoxCKaLCGV-4" value="Soru" style="rounded=1;whiteSpace=wrap;html=1;" vertex="1" parent="1">
          <mxGeometry x="170" y="10" width="120" height="60" as="geometry" />
        </mxCell>
        <mxCell id="NV4ruUfhsoZoxCKaLCGV-5" value="Cevap" style="rounded=1;whiteSpace=wrap;html=1;" vertex="1" parent="1">
          <mxGeometry y="120" width="120" height="60" as="geometry" />
        </mxCell>
        <mxCell id="NV4ruUfhsoZoxCKaLCGV-6" value="pYorum" style="rounded=1;whiteSpace=wrap;html=1;" vertex="1" parent="1">
          <mxGeometry x="550" y="330" width="120" height="60" as="geometry" />
        </mxCell>
        <mxCell id="NV4ruUfhsoZoxCKaLCGV-34" style="edgeStyle=orthogonalEdgeStyle;rounded=0;orthogonalLoop=1;jettySize=auto;html=1;" edge="1" parent="1" source="NV4ruUfhsoZoxCKaLCGV-7" target="NV4ruUfhsoZoxCKaLCGV-31">
          <mxGeometry relative="1" as="geometry">
            <Array as="points">
              <mxPoint x="230" y="440" />
            </Array>
          </mxGeometry>
        </mxCell>
        <mxCell id="NV4ruUfhsoZoxCKaLCGV-7" value="hYorum" style="rounded=1;whiteSpace=wrap;html=1;" vertex="1" parent="1">
          <mxGeometry x="170" y="330" width="120" height="60" as="geometry" />
        </mxCell>
        <mxCell id="NV4ruUfhsoZoxCKaLCGV-10" style="edgeStyle=orthogonalEdgeStyle;rounded=0;orthogonalLoop=1;jettySize=auto;html=1;endArrow=none;endFill=0;" edge="1" parent="1" source="NV4ruUfhsoZoxCKaLCGV-8" target="NV4ruUfhsoZoxCKaLCGV-2">
          <mxGeometry relative="1" as="geometry" />
        </mxCell>
        <mxCell id="NV4ruUfhsoZoxCKaLCGV-8" value="Yazabilir" style="shape=rhombus;perimeter=rhombusPerimeter;whiteSpace=wrap;html=1;align=center;" vertex="1" parent="1">
          <mxGeometry x="650" y="20" width="120" height="60" as="geometry" />
        </mxCell>
        <mxCell id="NV4ruUfhsoZoxCKaLCGV-13" style="edgeStyle=orthogonalEdgeStyle;rounded=0;orthogonalLoop=1;jettySize=auto;html=1;endArrow=none;endFill=0;" edge="1" parent="1" source="NV4ruUfhsoZoxCKaLCGV-11" target="NV4ruUfhsoZoxCKaLCGV-6">
          <mxGeometry relative="1" as="geometry">
            <Array as="points">
              <mxPoint x="510" y="370" />
            </Array>
          </mxGeometry>
        </mxCell>
        <mxCell id="NV4ruUfhsoZoxCKaLCGV-11" value="Yazabilir" style="shape=rhombus;perimeter=rhombusPerimeter;whiteSpace=wrap;html=1;align=center;" vertex="1" parent="1">
          <mxGeometry x="450" y="220" width="120" height="60" as="geometry" />
        </mxCell>
        <mxCell id="NV4ruUfhsoZoxCKaLCGV-16" style="edgeStyle=orthogonalEdgeStyle;rounded=0;orthogonalLoop=1;jettySize=auto;html=1;endArrow=none;endFill=0;" edge="1" parent="1" source="NV4ruUfhsoZoxCKaLCGV-14" target="NV4ruUfhsoZoxCKaLCGV-6">
          <mxGeometry relative="1" as="geometry">
            <Array as="points">
              <mxPoint x="710" y="370" />
            </Array>
          </mxGeometry>
        </mxCell>
        <mxCell id="NV4ruUfhsoZoxCKaLCGV-14" value="İçerebilir" style="shape=rhombus;perimeter=rhombusPerimeter;whiteSpace=wrap;html=1;align=center;" vertex="1" parent="1">
          <mxGeometry x="650" y="210" width="120" height="60" as="geometry" />
        </mxCell>
        <mxCell id="NV4ruUfhsoZoxCKaLCGV-19" style="edgeStyle=orthogonalEdgeStyle;rounded=0;orthogonalLoop=1;jettySize=auto;html=1;endArrow=none;endFill=0;" edge="1" parent="1" source="NV4ruUfhsoZoxCKaLCGV-17" target="NV4ruUfhsoZoxCKaLCGV-4">
          <mxGeometry relative="1" as="geometry" />
        </mxCell>
        <mxCell id="NV4ruUfhsoZoxCKaLCGV-17" value="Sorabilir" style="shape=rhombus;perimeter=rhombusPerimeter;whiteSpace=wrap;html=1;align=center;" vertex="1" parent="1">
          <mxGeometry x="330" y="10" width="120" height="60" as="geometry" />
        </mxCell>
        <mxCell id="NV4ruUfhsoZoxCKaLCGV-22" style="edgeStyle=orthogonalEdgeStyle;rounded=0;orthogonalLoop=1;jettySize=auto;html=1;endArrow=none;endFill=0;" edge="1" parent="1" source="NV4ruUfhsoZoxCKaLCGV-20" target="NV4ruUfhsoZoxCKaLCGV-5">
          <mxGeometry relative="1" as="geometry" />
        </mxCell>
        <mxCell id="NV4ruUfhsoZoxCKaLCGV-20" value="İçerebilir" style="shape=rhombus;perimeter=rhombusPerimeter;whiteSpace=wrap;html=1;align=center;" vertex="1" parent="1">
          <mxGeometry y="10" width="120" height="60" as="geometry" />
        </mxCell>
        <mxCell id="NV4ruUfhsoZoxCKaLCGV-25" style="edgeStyle=orthogonalEdgeStyle;rounded=0;orthogonalLoop=1;jettySize=auto;html=1;endArrow=none;endFill=0;" edge="1" parent="1" source="NV4ruUfhsoZoxCKaLCGV-23" target="NV4ruUfhsoZoxCKaLCGV-5">
          <mxGeometry relative="1" as="geometry" />
        </mxCell>
        <mxCell id="NV4ruUfhsoZoxCKaLCGV-23" value="Yazabilir" style="shape=rhombus;perimeter=rhombusPerimeter;whiteSpace=wrap;html=1;align=center;" vertex="1" parent="1">
          <mxGeometry x="170" y="120" width="120" height="60" as="geometry" />
        </mxCell>
        <mxCell id="NV4ruUfhsoZoxCKaLCGV-28" style="edgeStyle=orthogonalEdgeStyle;rounded=0;orthogonalLoop=1;jettySize=auto;html=1;endArrow=none;endFill=0;" edge="1" parent="1" source="NV4ruUfhsoZoxCKaLCGV-26" target="NV4ruUfhsoZoxCKaLCGV-3">
          <mxGeometry relative="1" as="geometry" />
        </mxCell>
        <mxCell id="NV4ruUfhsoZoxCKaLCGV-26" value="Yazabilir" style="shape=rhombus;perimeter=rhombusPerimeter;whiteSpace=wrap;html=1;align=center;" vertex="1" parent="1">
          <mxGeometry x="200" y="230" width="120" height="60" as="geometry" />
        </mxCell>
        <mxCell id="NV4ruUfhsoZoxCKaLCGV-33" style="edgeStyle=orthogonalEdgeStyle;rounded=0;orthogonalLoop=1;jettySize=auto;html=1;endArrow=none;endFill=0;" edge="1" parent="1" source="NV4ruUfhsoZoxCKaLCGV-29" target="NV4ruUfhsoZoxCKaLCGV-7">
          <mxGeometry relative="1" as="geometry" />
        </mxCell>
        <mxCell id="NV4ruUfhsoZoxCKaLCGV-29" value="Yazabilir" style="shape=rhombus;perimeter=rhombusPerimeter;whiteSpace=wrap;html=1;align=center;" vertex="1" parent="1">
          <mxGeometry x="350" y="330" width="120" height="60" as="geometry" />
        </mxCell>
        <mxCell id="NV4ruUfhsoZoxCKaLCGV-36" style="edgeStyle=orthogonalEdgeStyle;rounded=0;orthogonalLoop=1;jettySize=auto;html=1;endArrow=none;endFill=0;" edge="1" parent="1" source="NV4ruUfhsoZoxCKaLCGV-31" target="NV4ruUfhsoZoxCKaLCGV-3">
          <mxGeometry relative="1" as="geometry" />
        </mxCell>
        <mxCell id="NV4ruUfhsoZoxCKaLCGV-31" value="İçerebilir" style="shape=rhombus;perimeter=rhombusPerimeter;whiteSpace=wrap;html=1;align=center;" vertex="1" parent="1">
          <mxGeometry x="10" y="410" width="120" height="60" as="geometry" />
        </mxCell>
      </root>
    </mxGraphModel>
  </diagram>
</mxfile>
